<svg xmlns="http://www.w3.org/2000/svg" version="1.0" width="1398.000000pt" height="1398.000000pt"
  viewBox="0 0 1398.000000 1398.000000" preserveAspectRatio="xMidYMid meet">

  <g transform="translate(0.000000,1398.000000) scale(0.100000,-0.100000)" fill="#3b97ed" stroke="none">
    <path
      d="M1260 13975 c-8 -2 -49 -9 -90 -15 -308 -48 -550 -170 -765 -385 -213 -213 -322 -428 -386 -760 -12 -58 -14 -1030 -14 -5830 l0 -5760 28 -128 c28 -127 89 -297 134 -369 13 -21 23 -40 23 -44 0 -13 94 -140 158 -214 84 -97 198 -194 287 -245 28 -16 52 -32 55 -35 3 -3 43 -24 90 -47 112 -54 301 -109 422 -122 130 -15 11430 -15 11567 -1 95 10 147 22 283 66 288 94 551 304 717 574 96 157 173 380 191 550 14 145 14 11433 -1 11568 -24 217 -122 465 -256 645 -138 186 -348 355 -537 433 -33 14 -74 31 -91 39 -44 20 -134 41 -269 64 l-119 21 -5706 -1 c-3138 -1 -5713 -3 -5721 -4z m6578 -983 c63 -33 114 -84 148 -144 l29 -53 0 -2175 0 -2175 -23 -43 c-33 -63 -84 -114 -144 -148 l-53 -29 -2175 0 -2175 0 -53 29 c-60 34 -111 85 -144 148 l-23 43 0 2175 0 2175 23 42 c44 83 108 140 191 169 29 11 447 13 2196 11 l2160 -2 43 -23z m3584 -5511 c40 -6 138 -15 218 -21 149 -11 322 -35 375 -50 17 -5 86 -21 154 -35 68 -15 131 -30 140 -35 9 -5 52 -19 96 -31 44 -12 99 -30 123 -40 l42 -19 0 -634 c0 -348 -3 -635 -6 -639 -8 -7 -57 16 -99 48 -16 12 -70 43 -120 68 -268 136 -549 226 -840 267 -719 103 -1284 -72 -1397 -432 -22 -74 -24 -211 -3 -290 25 -99 133 -238 262 -339 35 -28 191 -129 198 -129 4 0 19 -8 33 -19 53 -37 287 -150 467 -225 61 -25 118 -51 128 -56 9 -6 52 -24 95 -41 42 -17 82 -34 87 -38 6 -4 42 -20 80 -36 39 -16 72 -31 75 -34 3 -3 34 -19 70 -36 36 -16 67 -33 70 -36 3 -3 34 -20 70 -37 36 -17 72 -36 80 -42 8 -5 58 -35 110 -66 85 -51 229 -152 307 -216 58 -47 230 -225 275 -284 122 -160 231 -385 272 -564 76 -329 60 -778 -39 -1077 -103 -313 -310 -585 -595 -786 -84 -58 -279 -164 -349 -188 -30 -10 -59 -23 -65 -28 -24 -19 -309 -101 -451 -130 -220 -45 -456 -70 -795 -87 -180 -8 -740 30 -935 65 -154 27 -328 64 -380 81 -33 11 -96 30 -140 44 -170 52 -371 135 -387 160 -13 19 -10 1366 3 1366 6 0 50 -30 98 -67 272 -213 546 -351 891 -450 154 -43 225 -58 393 -79 189 -23 366 -29 477 -15 245 31 336 48 385 71 11 5 50 21 87 34 200 74 338 225 374 409 16 81 16 95 2 183 -19 111 -47 172 -128 272 -116 145 -384 322 -680 452 -36 15 -108 47 -160 70 -146 64 -228 99 -310 131 -41 17 -79 34 -86 39 -6 6 -31 17 -55 25 -45 16 -230 105 -239 115 -3 4 -25 16 -50 29 -268 137 -582 399 -736 615 -259 363 -351 848 -258 1364 71 396 331 769 704 1014 215 141 507 262 763 318 50 10 121 26 157 34 36 8 135 22 220 31 85 9 180 20 210 24 78 12 625 13 712 2z m-3314 -693 l2 -568 -875 0 -875 0 0 -2495 0 -2495 -700 0 -700 0 0 2495 0 2495 -875 0 -875 0 0 564 c0 442 3 565 13 569 6 3 1108 5 2447 4 l2435 -2 3 -567z" />
    <path
      d="M4596 11731 c-3 -5 1 -11 9 -15 22 -8 55 -67 55 -99 0 -52 -30 -98 -77 -119 -71 -31 -140 -3 -170 70 -14 33 -15 33 -28 15 -7 -10 -21 -43 -30 -71 -47 -144 28 -313 170 -382 41 -20 65 -24 135 -24 100 0 155 22 223 88 67 65 91 125 92 226 0 79 -3 90 -36 150 -41 75 -105 129 -181 154 -54 17 -153 22 -162 7z" />
    <path
      d="M6516 11731 c-3 -5 1 -11 9 -15 22 -8 55 -67 55 -99 0 -52 -30 -98 -77 -119 -71 -31 -140 -3 -170 70 -14 33 -15 33 -28 15 -7 -10 -21 -43 -30 -71 -47 -144 28 -313 170 -382 41 -20 65 -24 135 -24 100 0 155 22 223 88 67 65 91 125 92 226 0 79 -3 90 -36 150 -41 75 -105 129 -181 154 -54 17 -153 22 -162 7z" />
    <path
      d="M5456 10604 c-274 -66 -338 -285 -117 -403 188 -100 482 -72 609 58 159 164 -36 363 -353 360 -44 0 -106 -7 -139 -15z" />
  </g>
</svg>